<svg viewBox="-2.24 -2.24 36.48 36.48" xmlns="http://www.w3.org/2000/svg" fill="#000000" transform="matrix(1, 0, 0, 1, 0, 0)"><g id="SVGRepo_bgCarrier" stroke-width="0"></g><g id="SVGRepo_tracerCarrier" stroke-linecap="round" stroke-linejoin="round" stroke="#CCCCCC" stroke-width="0.128"></g><g id="SVGRepo_iconCarrier"> <defs> <style>.cls-1{fill:#595a5c;}.cls-2{fill:#2c2d2e;}</style> </defs> <g data-name="14. Delivery Truck" id="_14._Delivery_Truck"> <path class="cls-1" d="M7,5h6a0,0,0,0,1,0,0V8.88A1.12,1.12,0,0,1,11.88,10H8.12A1.12,1.12,0,0,1,7,8.88V5A0,0,0,0,1,7,5Z"></path> <path class="cls-2" d="M31.41,17l-1.54-1.54-1.69-5.09A2,2,0,0,0,26.28,9H20V7a3,3,0,0,0-3-3H3A3,3,0,0,0,0,7V22a3,3,0,0,0,3,3H4.14a4,4,0,1,0,0-2H3a1,1,0,0,1-1-1V7A1,1,0,0,1,3,6H17a1,1,0,0,1,1,1V23H15a1,1,0,0,0,0,2h6.14a4,4,0,0,0,7.72,0H30a2,2,0,0,0,2-2V18.41A2,2,0,0,0,31.41,17ZM8,22a2,2,0,1,1-2,2A2,2,0,0,1,8,22Zm19.61-7H24V11h2.28ZM25,26a2,2,0,1,1,2-2A2,2,0,0,1,25,26Zm5-3H28.86a4,4,0,0,0-7.72,0H20V11h2v5a1,1,0,0,0,1,1h5.59L30,18.41Z"></path> </g> </g></svg>